<svg xmlns="http://www.w3.org/2000/svg" viewBox="0 0 80.43 84.77"><defs><style>.cls-1{fill:#206f4f;}.cls-2{fill:#56a56c;}.cls-3{fill:#fff;}</style></defs><g id="Layer_2" data-name="Layer 2"><g id="Layer_2-2" data-name="Layer 2"><rect class="cls-1" width="80.43" height="84.77" rx="14.94"/><path class="cls-2" d="M15.05,66.09a1,1,0,0,1,.09-.38c.3-.68,1.3-.81,2.9-.8,3.28,0,5.77.11,11.36.11,8,0,12.73-1.06,12.73-6.72,0-5.1-2.68-6.21-11.92-10.94C19.06,41.66,14,38,14,27.27c0-11.5,9.59-20,24.37-20,5.4,0,9.42-.25,12.59.75a6.44,6.44,0,0,1,4.17,5.81l0,5.79a.57.57,0,0,1-.57.56c-4.25,0-5.08-.05-11.7,0-8.12,0-11.62,2-11.62,6,0,5.29,5.24,7.06,13.79,12.06,9.83,5.74,14.49,9,14.49,19.79S51.84,78.05,33.32,78.34c-6.87.11-13.66.32-15.58-.72a5.5,5.5,0,0,1-1.48-1.11A5.27,5.27,0,0,1,15,73Z"/><path class="cls-3" d="M21.35,66.09a1,1,0,0,1,.08-.38c.31-.68,1.31-.81,2.91-.8,3.27,0,5.77.11,11.36.11,8,0,12.73-1.06,12.73-6.72,0-5.1-2.69-6.21-11.92-10.94C25.36,41.66,20.26,38,20.26,27.27c0-11.5,9.58-20,24.37-20C50,7.23,54,7,57.22,8a6.45,6.45,0,0,1,4.17,5.81l0,5.79a.57.57,0,0,1-.57.56c-4.25,0-5.08-.05-11.7,0-8.12,0-11.62,2-11.62,6,0,5.29,5.24,7.06,13.79,12.06,9.83,5.74,14.48,9,14.48,19.79s-7.6,20.09-26.12,20.38c-6.88.11-13.66.32-15.58-.72a5.67,5.67,0,0,1-1.49-1.11A5.27,5.27,0,0,1,21.34,73Z"/></g></g></svg>